<svg width="767" height="800" viewBox="0 0 767 800" fill="none" xmlns="http://www.w3.org/2000/svg">
<path d="M230.208 150.062C230.142 148.159 229.749 146.518 229.027 145.139C228.305 143.695 227.32 142.514 226.073 141.595C224.891 140.676 223.513 140.019 221.937 139.625C220.362 139.166 218.688 138.936 216.916 138.936C215.538 138.936 214.126 139.1 212.682 139.429C211.304 139.691 210.024 140.183 208.842 140.905C207.661 141.562 206.709 142.448 205.987 143.564C205.265 144.68 204.904 146.058 204.904 147.699C204.904 149.078 205.232 150.259 205.889 151.244C206.611 152.163 207.497 152.95 208.547 153.607C209.597 154.263 210.746 154.821 211.993 155.281C213.24 155.674 214.389 156.003 215.439 156.265L223.71 158.136C225.482 158.398 227.221 158.891 228.928 159.613C230.7 160.269 232.243 161.155 233.556 162.271C234.934 163.387 236.05 164.765 236.903 166.406C237.757 168.047 238.183 169.984 238.183 172.216C238.183 174.973 237.56 177.336 236.313 179.305C235.065 181.208 233.457 182.784 231.488 184.031C229.584 185.212 227.418 186.066 224.99 186.591C222.561 187.116 220.165 187.378 217.802 187.378C211.829 187.378 206.972 185.967 203.23 183.145C199.554 180.322 197.454 175.793 196.929 169.557H203.132C203.394 173.758 204.904 176.942 207.661 179.108C210.483 181.208 213.962 182.259 218.098 182.259C219.607 182.259 221.15 182.094 222.725 181.766C224.366 181.438 225.876 180.88 227.254 180.092C228.633 179.305 229.749 178.32 230.602 177.139C231.521 175.891 231.98 174.382 231.98 172.609C231.98 171.1 231.652 169.853 230.996 168.868C230.405 167.818 229.584 166.964 228.534 166.308C227.484 165.586 226.27 164.995 224.891 164.536C223.578 164.076 222.233 163.682 220.854 163.354L212.879 161.582C210.844 161.057 208.974 160.466 207.267 159.81C205.56 159.088 204.051 158.234 202.738 157.25C201.491 156.199 200.506 154.952 199.784 153.508C199.062 151.999 198.701 150.161 198.701 147.995C198.701 145.435 199.259 143.236 200.375 141.398C201.556 139.56 203.066 138.083 204.904 136.967C206.742 135.851 208.777 135.031 211.008 134.506C213.306 133.98 215.57 133.718 217.802 133.718C220.362 133.718 222.725 134.046 224.891 134.702C227.123 135.359 229.059 136.376 230.7 137.755C232.407 139.133 233.753 140.84 234.737 142.875C235.722 144.909 236.28 147.305 236.411 150.062H230.208ZM254.079 135.195H264.417V140.413H254.079V174.677C254.079 176.712 254.342 178.32 254.867 179.502C255.458 180.618 256.869 181.241 259.101 181.372C260.873 181.372 262.645 181.274 264.417 181.077V186.295C263.499 186.295 262.58 186.328 261.661 186.394C260.742 186.459 259.823 186.492 258.904 186.492C254.768 186.492 251.88 185.705 250.239 184.129C248.598 182.488 247.811 179.502 247.876 175.169V140.413H239.015V135.195H247.876V119.933H254.079V135.195ZM269.823 150.751C270.02 147.798 270.643 145.238 271.694 143.072C272.744 140.905 274.155 139.133 275.927 137.755C277.765 136.376 279.898 135.359 282.327 134.702C284.756 134.046 287.447 133.718 290.401 133.718C292.633 133.718 294.864 133.948 297.096 134.407C299.328 134.801 301.33 135.589 303.102 136.77C304.874 137.952 306.319 139.625 307.434 141.792C308.55 143.892 309.108 146.649 309.108 150.062V177.04C309.108 179.534 310.323 180.782 312.751 180.782C313.473 180.782 314.13 180.65 314.72 180.388V185.606C313.998 185.737 313.342 185.836 312.751 185.902C312.226 185.967 311.537 186 310.684 186C309.108 186 307.828 185.803 306.844 185.409C305.925 184.95 305.203 184.326 304.678 183.539C304.152 182.751 303.791 181.832 303.594 180.782C303.463 179.666 303.398 178.451 303.398 177.139H303.201C302.085 178.78 300.936 180.257 299.755 181.569C298.639 182.816 297.359 183.867 295.915 184.72C294.536 185.573 292.928 186.23 291.09 186.689C289.318 187.149 287.185 187.378 284.69 187.378C282.327 187.378 280.095 187.083 277.995 186.492C275.96 185.967 274.155 185.114 272.58 183.932C271.07 182.685 269.856 181.143 268.937 179.305C268.083 177.401 267.657 175.169 267.657 172.609C267.657 169.065 268.444 166.308 270.02 164.339C271.595 162.304 273.663 160.761 276.223 159.711C278.848 158.661 281.769 157.939 284.986 157.545C288.268 157.086 291.582 156.659 294.93 156.265C296.243 156.134 297.392 155.97 298.376 155.773C299.361 155.576 300.181 155.248 300.838 154.788C301.494 154.263 301.986 153.574 302.315 152.721C302.708 151.867 302.905 150.751 302.905 149.373C302.905 147.272 302.544 145.566 301.822 144.253C301.166 142.875 300.214 141.792 298.967 141.004C297.785 140.216 296.374 139.691 294.733 139.429C293.158 139.1 291.451 138.936 289.613 138.936C285.675 138.936 282.458 139.888 279.964 141.792C277.47 143.629 276.157 146.616 276.026 150.751H269.823ZM302.905 158.234H302.708C302.315 158.956 301.56 159.481 300.444 159.81C299.328 160.138 298.343 160.368 297.49 160.499C294.864 160.958 292.14 161.385 289.318 161.779C286.561 162.107 284.034 162.632 281.736 163.354C279.439 164.076 277.535 165.127 276.026 166.505C274.582 167.818 273.86 169.721 273.86 172.216C273.86 173.791 274.155 175.202 274.746 176.449C275.402 177.631 276.255 178.681 277.306 179.6C278.356 180.453 279.57 181.11 280.949 181.569C282.327 182.029 283.738 182.259 285.182 182.259C287.546 182.259 289.81 181.898 291.976 181.175C294.142 180.453 296.013 179.403 297.588 178.025C299.229 176.646 300.509 174.973 301.428 173.003C302.413 171.034 302.905 168.802 302.905 166.308V158.234ZM312.806 135.195H319.403L336.141 178.517L351.796 135.195H357.999L335.944 193.68C335.025 195.846 334.172 197.618 333.384 198.997C332.596 200.441 331.71 201.557 330.726 202.344C329.807 203.198 328.691 203.788 327.378 204.117C326.131 204.51 324.523 204.707 322.553 204.707C321.306 204.642 320.322 204.576 319.6 204.51C318.943 204.51 318.352 204.412 317.827 204.215V198.997C318.549 199.128 319.239 199.226 319.895 199.292C320.617 199.423 321.339 199.489 322.061 199.489C323.44 199.489 324.555 199.292 325.409 198.898C326.328 198.504 327.115 197.946 327.772 197.224C328.428 196.568 328.986 195.748 329.446 194.763C329.905 193.778 330.397 192.695 330.922 191.514L333.089 185.803L312.806 135.195ZM419.656 153.016C418.737 147.174 415.29 144.253 409.317 144.253C407.085 144.253 405.215 144.778 403.705 145.828C402.195 146.813 400.948 148.126 399.964 149.767C399.045 151.342 398.388 153.114 397.994 155.084C397.601 156.987 397.404 158.891 397.404 160.794C397.404 162.632 397.601 164.503 397.994 166.406C398.388 168.31 399.012 170.05 399.865 171.625C400.784 173.135 401.998 174.382 403.508 175.366C405.018 176.351 406.856 176.843 409.022 176.843C412.37 176.843 414.929 175.924 416.702 174.086C418.54 172.183 419.688 169.656 420.148 166.505H433.637C432.718 173.266 430.092 178.419 425.76 181.963C421.428 185.508 415.881 187.28 409.12 187.28C405.313 187.28 401.801 186.656 398.585 185.409C395.434 184.096 392.743 182.291 390.511 179.994C388.28 177.697 386.54 174.973 385.293 171.822C384.046 168.605 383.422 165.094 383.422 161.287C383.422 157.348 383.98 153.705 385.096 150.358C386.278 146.944 387.984 144.023 390.216 141.595C392.448 139.1 395.172 137.164 398.388 135.785C401.605 134.407 405.28 133.718 409.416 133.718C412.435 133.718 415.323 134.112 418.08 134.899C420.903 135.687 423.397 136.901 425.563 138.542C427.795 140.118 429.6 142.12 430.978 144.548C432.357 146.911 433.145 149.734 433.341 153.016H419.656ZM450.987 160.597C450.987 162.632 451.184 164.634 451.578 166.603C451.972 168.507 452.628 170.246 453.547 171.822C454.532 173.332 455.812 174.546 457.387 175.465C458.963 176.384 460.932 176.843 463.295 176.843C465.658 176.843 467.627 176.384 469.202 175.465C470.843 174.546 472.123 173.332 473.042 171.822C474.027 170.246 474.716 168.507 475.11 166.603C475.504 164.634 475.701 162.632 475.701 160.597C475.701 158.563 475.504 156.561 475.11 154.591C474.716 152.622 474.027 150.883 473.042 149.373C472.123 147.863 470.843 146.649 469.202 145.73C467.627 144.745 465.658 144.253 463.295 144.253C460.932 144.253 458.963 144.745 457.387 145.73C455.812 146.649 454.532 147.863 453.547 149.373C452.628 150.883 451.972 152.622 451.578 154.591C451.184 156.561 450.987 158.563 450.987 160.597ZM437.006 160.597C437.006 156.528 437.63 152.852 438.877 149.57C440.124 146.222 441.896 143.4 444.194 141.102C446.491 138.739 449.248 136.934 452.464 135.687C455.681 134.374 459.291 133.718 463.295 133.718C467.299 133.718 470.909 134.374 474.125 135.687C477.407 136.934 480.197 138.739 482.494 141.102C484.792 143.4 486.564 146.222 487.811 149.57C489.058 152.852 489.682 156.528 489.682 160.597C489.682 164.667 489.058 168.343 487.811 171.625C486.564 174.907 484.792 177.729 482.494 180.092C480.197 182.39 477.407 184.162 474.125 185.409C470.909 186.656 467.299 187.28 463.295 187.28C459.291 187.28 455.681 186.656 452.464 185.409C449.248 184.162 446.491 182.39 444.194 180.092C441.896 177.729 440.124 174.907 438.877 171.625C437.63 168.343 437.006 164.667 437.006 160.597ZM508.225 160.597C508.225 162.632 508.422 164.634 508.816 166.603C509.209 168.507 509.866 170.246 510.785 171.822C511.769 173.332 513.049 174.546 514.625 175.465C516.2 176.384 518.169 176.843 520.532 176.843C522.895 176.843 524.864 176.384 526.44 175.465C528.081 174.546 529.361 173.332 530.28 171.822C531.264 170.246 531.954 168.507 532.347 166.603C532.741 164.634 532.938 162.632 532.938 160.597C532.938 158.563 532.741 156.561 532.347 154.591C531.954 152.622 531.264 150.883 530.28 149.373C529.361 147.863 528.081 146.649 526.44 145.73C524.864 144.745 522.895 144.253 520.532 144.253C518.169 144.253 516.2 144.745 514.625 145.73C513.049 146.649 511.769 147.863 510.785 149.373C509.866 150.883 509.209 152.622 508.816 154.591C508.422 156.561 508.225 158.563 508.225 160.597ZM494.243 160.597C494.243 156.528 494.867 152.852 496.114 149.57C497.361 146.222 499.134 143.4 501.431 141.102C503.728 138.739 506.485 136.934 509.702 135.687C512.918 134.374 516.528 133.718 520.532 133.718C524.536 133.718 528.146 134.374 531.363 135.687C534.645 136.934 537.434 138.739 539.732 141.102C542.029 143.4 543.802 146.222 545.049 149.57C546.296 152.852 546.919 156.528 546.919 160.597C546.919 164.667 546.296 168.343 545.049 171.625C543.802 174.907 542.029 177.729 539.732 180.092C537.434 182.39 534.645 184.162 531.363 185.409C528.146 186.656 524.536 187.28 520.532 187.28C516.528 187.28 512.918 186.656 509.702 185.409C506.485 184.162 503.728 182.39 501.431 180.092C499.134 177.729 497.361 174.907 496.114 171.625C494.867 168.343 494.243 164.667 494.243 160.597ZM553.45 115.7H567.431V186H553.45V115.7Z" fill="white"/>
<path d="M166.234 243.251H171.662C172.029 243.251 172.487 243.228 173.037 243.183C173.586 243.114 174.171 242.977 174.789 242.77C175.407 242.541 176.014 242.221 176.61 241.808C177.228 241.396 177.778 240.835 178.259 240.125C178.74 239.415 179.13 238.533 179.427 237.479C179.748 236.403 179.908 235.109 179.908 233.597C179.908 232.131 179.759 230.825 179.462 229.68C179.187 228.512 178.717 227.527 178.053 226.725C177.412 225.901 176.576 225.282 175.545 224.87C174.514 224.435 173.243 224.217 171.731 224.217H166.234V243.251ZM162.97 221.469H171.388C175.167 221.469 178.076 222.431 180.114 224.355C182.153 226.279 183.172 229.211 183.172 233.15C183.172 235.212 182.943 237.044 182.485 238.647C182.027 240.228 181.317 241.568 180.355 242.667C179.393 243.744 178.168 244.568 176.679 245.141C175.19 245.714 173.426 246 171.388 246H162.97V221.469ZM199.015 235.418C198.969 234.731 198.808 234.078 198.534 233.459C198.282 232.841 197.927 232.314 197.468 231.879C197.033 231.421 196.506 231.066 195.888 230.814C195.293 230.539 194.628 230.402 193.895 230.402C193.139 230.402 192.452 230.539 191.834 230.814C191.238 231.066 190.723 231.421 190.288 231.879C189.853 232.337 189.509 232.875 189.257 233.494C189.005 234.089 188.856 234.731 188.81 235.418H199.015ZM201.832 240.365C201.443 242.358 200.584 243.858 199.255 244.866C197.927 245.874 196.255 246.378 194.239 246.378C192.819 246.378 191.582 246.149 190.528 245.691C189.498 245.233 188.627 244.591 187.917 243.767C187.207 242.942 186.669 241.957 186.302 240.812C185.959 239.667 185.764 238.418 185.718 237.067C185.718 235.716 185.924 234.479 186.337 233.356C186.749 232.234 187.322 231.261 188.055 230.436C188.81 229.611 189.692 228.97 190.7 228.512C191.731 228.054 192.853 227.825 194.067 227.825C195.648 227.825 196.953 228.157 197.984 228.821C199.037 229.463 199.874 230.287 200.492 231.295C201.133 232.303 201.568 233.402 201.798 234.593C202.049 235.784 202.153 236.918 202.107 237.995H188.81C188.787 238.773 188.879 239.518 189.085 240.228C189.291 240.915 189.624 241.534 190.082 242.083C190.54 242.61 191.124 243.034 191.834 243.354C192.544 243.675 193.38 243.835 194.342 243.835C195.579 243.835 196.587 243.549 197.365 242.977C198.167 242.404 198.694 241.534 198.946 240.365H201.832ZM217.468 235.418C217.423 234.731 217.262 234.078 216.987 233.459C216.735 232.841 216.38 232.314 215.922 231.879C215.487 231.421 214.96 231.066 214.342 230.814C213.746 230.539 213.082 230.402 212.349 230.402C211.593 230.402 210.906 230.539 210.288 230.814C209.692 231.066 209.177 231.421 208.742 231.879C208.306 232.337 207.963 232.875 207.711 233.494C207.459 234.089 207.31 234.731 207.264 235.418H217.468ZM220.286 240.365C219.896 242.358 219.037 243.858 217.709 244.866C216.38 245.874 214.708 246.378 212.693 246.378C211.273 246.378 210.036 246.149 208.982 245.691C207.951 245.233 207.081 244.591 206.371 243.767C205.661 242.942 205.123 241.957 204.756 240.812C204.412 239.667 204.218 238.418 204.172 237.067C204.172 235.716 204.378 234.479 204.79 233.356C205.203 232.234 205.775 231.261 206.508 230.436C207.264 229.611 208.146 228.97 209.154 228.512C210.185 228.054 211.307 227.825 212.521 227.825C214.101 227.825 215.407 228.157 216.438 228.821C217.491 229.463 218.327 230.287 218.946 231.295C219.587 232.303 220.022 233.402 220.251 234.593C220.503 235.784 220.606 236.918 220.561 237.995H207.264C207.241 238.773 207.333 239.518 207.539 240.228C207.745 240.915 208.077 241.534 208.535 242.083C208.993 242.61 209.578 243.034 210.288 243.354C210.998 243.675 211.834 243.835 212.796 243.835C214.033 243.835 215.04 243.549 215.819 242.977C216.621 242.404 217.148 241.534 217.4 240.365H220.286ZM223.691 228.237H226.611V230.642H226.68C227.161 229.657 227.917 228.947 228.947 228.512C229.978 228.054 231.112 227.825 232.349 227.825C233.723 227.825 234.914 228.077 235.922 228.581C236.953 229.085 237.8 229.772 238.465 230.642C239.152 231.49 239.667 232.475 240.011 233.597C240.354 234.719 240.526 235.91 240.526 237.17C240.526 238.43 240.354 239.621 240.011 240.743C239.69 241.866 239.186 242.851 238.499 243.698C237.835 244.523 236.987 245.175 235.956 245.656C234.949 246.137 233.769 246.378 232.418 246.378C231.982 246.378 231.49 246.332 230.94 246.241C230.413 246.149 229.887 246 229.36 245.794C228.833 245.588 228.329 245.313 227.848 244.969C227.39 244.603 227.001 244.156 226.68 243.629H226.611V252.768H223.691V228.237ZM237.434 236.964C237.434 236.139 237.319 235.338 237.09 234.559C236.884 233.757 236.552 233.047 236.094 232.429C235.659 231.81 235.086 231.318 234.376 230.951C233.689 230.585 232.876 230.402 231.937 230.402C230.952 230.402 230.116 230.596 229.429 230.986C228.741 231.375 228.18 231.891 227.745 232.532C227.31 233.15 226.989 233.86 226.783 234.662C226.6 235.464 226.508 236.277 226.508 237.101C226.508 237.972 226.611 238.819 226.817 239.644C227.023 240.446 227.344 241.156 227.779 241.774C228.237 242.392 228.822 242.896 229.532 243.286C230.242 243.652 231.101 243.835 232.108 243.835C233.116 243.835 233.952 243.641 234.616 243.251C235.304 242.862 235.853 242.347 236.266 241.705C236.678 241.064 236.976 240.331 237.159 239.506C237.342 238.682 237.434 237.834 237.434 236.964ZM255.647 237.273C255.647 238.098 255.75 238.911 255.956 239.713C256.185 240.491 256.517 241.19 256.952 241.808C257.41 242.427 257.983 242.919 258.67 243.286C259.38 243.652 260.205 243.835 261.144 243.835C262.129 243.835 262.965 243.641 263.652 243.251C264.339 242.862 264.9 242.358 265.335 241.74C265.771 241.098 266.08 240.377 266.263 239.575C266.469 238.773 266.572 237.96 266.572 237.136C266.572 236.265 266.469 235.429 266.263 234.628C266.057 233.803 265.725 233.082 265.267 232.463C264.831 231.845 264.259 231.352 263.549 230.986C262.839 230.596 261.98 230.402 260.972 230.402C259.987 230.402 259.151 230.596 258.464 230.986C257.777 231.375 257.227 231.891 256.815 232.532C256.402 233.173 256.105 233.906 255.921 234.731C255.738 235.555 255.647 236.403 255.647 237.273ZM269.39 246H266.469V243.595H266.4C265.919 244.58 265.164 245.29 264.133 245.725C263.102 246.16 261.968 246.378 260.731 246.378C259.357 246.378 258.155 246.126 257.124 245.622C256.116 245.118 255.269 244.442 254.581 243.595C253.917 242.747 253.413 241.763 253.07 240.64C252.726 239.518 252.554 238.327 252.554 237.067C252.554 235.807 252.715 234.616 253.035 233.494C253.379 232.372 253.883 231.398 254.547 230.573C255.234 229.726 256.082 229.062 257.09 228.581C258.12 228.077 259.311 227.825 260.663 227.825C261.121 227.825 261.613 227.871 262.14 227.962C262.667 228.054 263.194 228.214 263.721 228.443C264.247 228.649 264.74 228.936 265.198 229.302C265.679 229.646 266.08 230.081 266.4 230.608H266.469V221.469H269.39V246ZM276.975 225.042H274.054V221.469H276.975V225.042ZM274.054 228.237H276.975V246H274.054V228.237ZM283.286 240.4C283.308 241.041 283.457 241.591 283.732 242.049C284.007 242.484 284.362 242.839 284.797 243.114C285.255 243.366 285.759 243.549 286.309 243.664C286.882 243.778 287.466 243.835 288.061 243.835C288.519 243.835 289 243.801 289.504 243.732C290.008 243.664 290.466 243.538 290.879 243.354C291.314 243.171 291.669 242.908 291.944 242.564C292.219 242.198 292.356 241.74 292.356 241.19C292.356 240.434 292.07 239.861 291.497 239.472C290.924 239.083 290.203 238.773 289.332 238.544C288.485 238.292 287.557 238.075 286.55 237.892C285.542 237.685 284.603 237.411 283.732 237.067C282.885 236.701 282.175 236.197 281.602 235.555C281.029 234.914 280.743 234.021 280.743 232.875C280.743 231.982 280.938 231.215 281.327 230.573C281.739 229.932 282.255 229.417 282.873 229.027C283.515 228.615 284.225 228.317 285.003 228.134C285.805 227.928 286.595 227.825 287.374 227.825C288.382 227.825 289.31 227.916 290.157 228.1C291.005 228.26 291.749 228.558 292.39 228.993C293.055 229.405 293.581 229.978 293.971 230.711C294.36 231.421 294.589 232.314 294.658 233.391H291.738C291.692 232.818 291.543 232.349 291.291 231.982C291.039 231.593 290.718 231.284 290.329 231.054C289.939 230.825 289.504 230.665 289.023 230.573C288.565 230.459 288.096 230.402 287.615 230.402C287.179 230.402 286.733 230.436 286.275 230.505C285.839 230.573 285.439 230.699 285.072 230.883C284.706 231.043 284.408 231.272 284.179 231.57C283.95 231.845 283.835 232.211 283.835 232.669C283.835 233.173 284.007 233.597 284.351 233.941C284.717 234.261 285.175 234.536 285.725 234.765C286.275 234.971 286.893 235.154 287.58 235.315C288.267 235.452 288.955 235.601 289.642 235.761C290.375 235.922 291.085 236.116 291.772 236.346C292.482 236.575 293.1 236.884 293.627 237.273C294.177 237.64 294.612 238.109 294.933 238.682C295.276 239.254 295.448 239.965 295.448 240.812C295.448 241.889 295.219 242.782 294.761 243.492C294.326 244.202 293.742 244.775 293.009 245.21C292.299 245.645 291.486 245.943 290.569 246.103C289.676 246.286 288.783 246.378 287.889 246.378C286.905 246.378 285.965 246.275 285.072 246.069C284.179 245.863 283.389 245.53 282.701 245.072C282.014 244.591 281.465 243.973 281.052 243.217C280.64 242.438 280.411 241.499 280.365 240.4H283.286ZM310.737 233.941C310.508 232.818 310.027 231.948 309.294 231.329C308.561 230.711 307.576 230.402 306.339 230.402C305.286 230.402 304.404 230.596 303.694 230.986C302.984 231.375 302.411 231.891 301.976 232.532C301.564 233.173 301.266 233.918 301.083 234.765C300.9 235.59 300.808 236.449 300.808 237.342C300.808 238.166 300.9 238.968 301.083 239.747C301.289 240.526 301.598 241.224 302.01 241.843C302.423 242.438 302.961 242.919 303.625 243.286C304.289 243.652 305.08 243.835 305.996 243.835C307.439 243.835 308.561 243.458 309.363 242.702C310.188 241.946 310.691 240.881 310.875 239.506H313.864C313.543 241.705 312.719 243.4 311.39 244.591C310.084 245.782 308.298 246.378 306.03 246.378C304.679 246.378 303.476 246.16 302.423 245.725C301.392 245.29 300.522 244.672 299.812 243.87C299.124 243.068 298.598 242.118 298.231 241.018C297.888 239.896 297.716 238.67 297.716 237.342C297.716 236.013 297.888 234.777 298.231 233.631C298.575 232.463 299.09 231.455 299.777 230.608C300.487 229.737 301.369 229.062 302.423 228.581C303.476 228.077 304.702 227.825 306.099 227.825C307.107 227.825 308.046 227.951 308.916 228.203C309.81 228.432 310.588 228.798 311.253 229.302C311.94 229.806 312.501 230.447 312.936 231.226C313.371 231.982 313.646 232.887 313.761 233.941H310.737ZM319.262 237.136C319.262 238.212 319.399 239.174 319.674 240.022C319.972 240.846 320.373 241.545 320.876 242.118C321.38 242.667 321.964 243.091 322.629 243.389C323.316 243.687 324.037 243.835 324.793 243.835C325.549 243.835 326.259 243.687 326.923 243.389C327.611 243.091 328.206 242.667 328.71 242.118C329.214 241.545 329.603 240.846 329.878 240.022C330.176 239.174 330.325 238.212 330.325 237.136C330.325 236.059 330.176 235.109 329.878 234.284C329.603 233.437 329.214 232.727 328.71 232.154C328.206 231.581 327.611 231.146 326.923 230.848C326.259 230.551 325.549 230.402 324.793 230.402C324.037 230.402 323.316 230.551 322.629 230.848C321.964 231.146 321.38 231.581 320.876 232.154C320.373 232.727 319.972 233.437 319.674 234.284C319.399 235.109 319.262 236.059 319.262 237.136ZM316.169 237.136C316.169 235.83 316.353 234.616 316.719 233.494C317.086 232.349 317.635 231.364 318.368 230.539C319.101 229.692 320.006 229.027 321.083 228.546C322.159 228.065 323.396 227.825 324.793 227.825C326.213 227.825 327.45 228.065 328.504 228.546C329.58 229.027 330.485 229.692 331.218 230.539C331.951 231.364 332.501 232.349 332.867 233.494C333.234 234.616 333.417 235.83 333.417 237.136C333.417 238.441 333.234 239.655 332.867 240.778C332.501 241.9 331.951 242.885 331.218 243.732C330.485 244.557 329.58 245.21 328.504 245.691C327.45 246.149 326.213 246.378 324.793 246.378C323.396 246.378 322.159 246.149 321.083 245.691C320.006 245.21 319.101 244.557 318.368 243.732C317.635 242.885 317.086 241.9 316.719 240.778C316.353 239.655 316.169 238.441 316.169 237.136ZM351.565 246H348.817V243.183H348.748C348.13 244.282 347.339 245.095 346.377 245.622C345.415 246.126 344.281 246.378 342.976 246.378C341.808 246.378 340.834 246.229 340.055 245.931C339.277 245.611 338.647 245.164 338.166 244.591C337.685 244.019 337.341 243.343 337.135 242.564C336.952 241.763 336.86 240.881 336.86 239.919V228.237H339.781V240.262C339.781 241.362 340.101 242.232 340.743 242.873C341.384 243.515 342.266 243.835 343.388 243.835C344.281 243.835 345.049 243.698 345.69 243.423C346.354 243.148 346.904 242.759 347.339 242.255C347.774 241.751 348.095 241.167 348.301 240.503C348.53 239.816 348.645 239.071 348.645 238.27V228.237H351.565V246ZM355.951 228.237H358.7V231.054H358.769C359.983 228.901 361.907 227.825 364.541 227.825C365.709 227.825 366.682 227.985 367.461 228.306C368.24 228.627 368.87 229.073 369.351 229.646C369.832 230.218 370.164 230.906 370.347 231.707C370.553 232.486 370.657 233.356 370.657 234.318V246H367.736V233.975C367.736 232.875 367.415 232.005 366.774 231.364C366.133 230.722 365.251 230.402 364.129 230.402C363.235 230.402 362.457 230.539 361.792 230.814C361.151 231.089 360.613 231.478 360.177 231.982C359.742 232.486 359.41 233.082 359.181 233.769C358.975 234.433 358.872 235.166 358.872 235.968V246H355.951V228.237ZM379.097 228.237H382.636V230.814H379.097V241.843C379.097 242.186 379.12 242.461 379.166 242.667C379.234 242.873 379.349 243.034 379.509 243.148C379.67 243.263 379.887 243.343 380.162 243.389C380.46 243.412 380.838 243.423 381.296 243.423H382.636V246H380.403C379.647 246 378.994 245.954 378.444 245.863C377.917 245.748 377.482 245.553 377.139 245.278C376.818 245.004 376.577 244.614 376.417 244.11C376.257 243.606 376.177 242.942 376.177 242.118V230.814H373.153V228.237H376.177V222.912H379.097V228.237ZM387.667 240.4C387.69 241.041 387.839 241.591 388.113 242.049C388.388 242.484 388.743 242.839 389.178 243.114C389.637 243.366 390.14 243.549 390.69 243.664C391.263 243.778 391.847 243.835 392.442 243.835C392.901 243.835 393.382 243.801 393.885 243.732C394.389 243.664 394.847 243.538 395.26 243.354C395.695 243.171 396.05 242.908 396.325 242.564C396.6 242.198 396.737 241.74 396.737 241.19C396.737 240.434 396.451 239.861 395.878 239.472C395.306 239.083 394.584 238.773 393.714 238.544C392.866 238.292 391.939 238.075 390.931 237.892C389.923 237.685 388.984 237.411 388.113 237.067C387.266 236.701 386.556 236.197 385.983 235.555C385.411 234.914 385.124 234.021 385.124 232.875C385.124 231.982 385.319 231.215 385.708 230.573C386.121 229.932 386.636 229.417 387.254 229.027C387.896 228.615 388.606 228.317 389.385 228.134C390.186 227.928 390.976 227.825 391.755 227.825C392.763 227.825 393.691 227.916 394.538 228.1C395.386 228.26 396.13 228.558 396.771 228.993C397.436 229.405 397.963 229.978 398.352 230.711C398.741 231.421 398.97 232.314 399.039 233.391H396.119C396.073 232.818 395.924 232.349 395.672 231.982C395.42 231.593 395.099 231.284 394.71 231.054C394.321 230.825 393.885 230.665 393.404 230.573C392.946 230.459 392.477 230.402 391.996 230.402C391.561 230.402 391.114 230.436 390.656 230.505C390.221 230.573 389.82 230.699 389.453 230.883C389.087 231.043 388.789 231.272 388.56 231.57C388.331 231.845 388.216 232.211 388.216 232.669C388.216 233.173 388.388 233.597 388.732 233.941C389.098 234.261 389.556 234.536 390.106 234.765C390.656 234.971 391.274 235.154 391.961 235.315C392.649 235.452 393.336 235.601 394.023 235.761C394.756 235.922 395.466 236.116 396.153 236.346C396.863 236.575 397.482 236.884 398.008 237.273C398.558 237.64 398.993 238.109 399.314 238.682C399.658 239.254 399.829 239.965 399.829 240.812C399.829 241.889 399.6 242.782 399.142 243.492C398.707 244.202 398.123 244.775 397.39 245.21C396.68 245.645 395.867 245.943 394.951 246.103C394.057 246.286 393.164 246.378 392.271 246.378C391.286 246.378 390.347 246.275 389.453 246.069C388.56 245.863 387.77 245.53 387.083 245.072C386.395 244.591 385.846 243.973 385.433 243.217C385.021 242.438 384.792 241.499 384.746 240.4H387.667ZM414.751 237.136C414.751 238.212 414.889 239.174 415.164 240.022C415.462 240.846 415.862 241.545 416.366 242.118C416.87 242.667 417.454 243.091 418.119 243.389C418.806 243.687 419.527 243.835 420.283 243.835C421.039 243.835 421.749 243.687 422.413 243.389C423.1 243.091 423.696 242.667 424.2 242.118C424.704 241.545 425.093 240.846 425.368 240.022C425.666 239.174 425.815 238.212 425.815 237.136C425.815 236.059 425.666 235.109 425.368 234.284C425.093 233.437 424.704 232.727 424.2 232.154C423.696 231.581 423.1 231.146 422.413 230.848C421.749 230.551 421.039 230.402 420.283 230.402C419.527 230.402 418.806 230.551 418.119 230.848C417.454 231.146 416.87 231.581 416.366 232.154C415.862 232.727 415.462 233.437 415.164 234.284C414.889 235.109 414.751 236.059 414.751 237.136ZM411.659 237.136C411.659 235.83 411.843 234.616 412.209 233.494C412.575 232.349 413.125 231.364 413.858 230.539C414.591 229.692 415.496 229.027 416.572 228.546C417.649 228.065 418.886 227.825 420.283 227.825C421.703 227.825 422.94 228.065 423.994 228.546C425.07 229.027 425.975 229.692 426.708 230.539C427.441 231.364 427.991 232.349 428.357 233.494C428.724 234.616 428.907 235.83 428.907 237.136C428.907 238.441 428.724 239.655 428.357 240.778C427.991 241.9 427.441 242.885 426.708 243.732C425.975 244.557 425.07 245.21 423.994 245.691C422.94 246.149 421.703 246.378 420.283 246.378C418.886 246.378 417.649 246.149 416.572 245.691C415.496 245.21 414.591 244.557 413.858 243.732C413.125 242.885 412.575 241.9 412.209 240.778C411.843 239.655 411.659 238.441 411.659 237.136ZM432.35 228.237H435.099V231.054H435.167C436.381 228.901 438.305 227.825 440.939 227.825C442.108 227.825 443.081 227.985 443.86 228.306C444.639 228.627 445.268 229.073 445.749 229.646C446.23 230.218 446.563 230.906 446.746 231.707C446.952 232.486 447.055 233.356 447.055 234.318V246H444.135V233.975C444.135 232.875 443.814 232.005 443.173 231.364C442.531 230.722 441.649 230.402 440.527 230.402C439.634 230.402 438.855 230.539 438.191 230.814C437.549 231.089 437.011 231.478 436.576 231.982C436.141 232.486 435.809 233.082 435.58 233.769C435.373 234.433 435.27 235.166 435.27 235.968V246H432.35V228.237ZM475.709 246H472.96V243.183H472.891C472.273 244.282 471.483 245.095 470.521 245.622C469.559 246.126 468.425 246.378 467.119 246.378C465.951 246.378 464.978 246.229 464.199 245.931C463.42 245.611 462.79 245.164 462.309 244.591C461.828 244.019 461.485 243.343 461.279 242.564C461.095 241.763 461.004 240.881 461.004 239.919V228.237H463.924V240.262C463.924 241.362 464.245 242.232 464.886 242.873C465.527 243.515 466.409 243.835 467.532 243.835C468.425 243.835 469.192 243.698 469.834 243.423C470.498 243.148 471.048 242.759 471.483 242.255C471.918 241.751 472.239 241.167 472.445 240.503C472.674 239.816 472.788 239.071 472.788 238.27V228.237H475.709V246ZM480.095 228.237H482.844V230.848H482.912C484.241 228.833 486.153 227.825 488.65 227.825C489.749 227.825 490.746 228.054 491.639 228.512C492.532 228.97 493.162 229.749 493.529 230.848C494.124 229.886 494.903 229.142 495.865 228.615C496.85 228.088 497.927 227.825 499.095 227.825C499.988 227.825 500.79 227.928 501.5 228.134C502.233 228.317 502.851 228.615 503.355 229.027C503.882 229.44 504.283 229.978 504.558 230.642C504.855 231.284 505.004 232.062 505.004 232.978V246H502.084V234.353C502.084 233.803 502.038 233.288 501.946 232.807C501.855 232.326 501.683 231.913 501.431 231.57C501.179 231.203 500.824 230.917 500.366 230.711C499.931 230.505 499.358 230.402 498.648 230.402C497.205 230.402 496.071 230.814 495.247 231.639C494.422 232.463 494.01 233.563 494.01 234.937V246H491.089V234.353C491.089 233.78 491.032 233.253 490.918 232.772C490.826 232.291 490.654 231.879 490.402 231.535C490.15 231.169 489.807 230.894 489.371 230.711C488.959 230.505 488.421 230.402 487.757 230.402C486.909 230.402 486.176 230.573 485.558 230.917C484.962 231.261 484.47 231.673 484.08 232.154C483.714 232.635 483.439 233.139 483.256 233.666C483.095 234.17 483.015 234.593 483.015 234.937V246H480.095V228.237ZM509.489 221.469H512.41V230.642H512.478C512.959 229.657 513.715 228.947 514.746 228.512C515.777 228.054 516.91 227.825 518.147 227.825C519.522 227.825 520.713 228.077 521.72 228.581C522.751 229.085 523.599 229.772 524.263 230.642C524.95 231.49 525.465 232.475 525.809 233.597C526.153 234.719 526.324 235.91 526.324 237.17C526.324 238.43 526.153 239.621 525.809 240.743C525.488 241.866 524.984 242.851 524.297 243.698C523.633 244.523 522.786 245.175 521.755 245.656C520.747 246.137 519.567 246.378 518.216 246.378C517.781 246.378 517.288 246.332 516.739 246.241C516.212 246.149 515.685 246 515.158 245.794C514.631 245.588 514.127 245.313 513.646 244.969C513.188 244.603 512.799 244.156 512.478 243.629H512.41V246H509.489V221.469ZM523.232 236.964C523.232 236.139 523.118 235.338 522.889 234.559C522.682 233.757 522.35 233.047 521.892 232.429C521.457 231.81 520.884 231.318 520.174 230.951C519.487 230.585 518.674 230.402 517.735 230.402C516.75 230.402 515.914 230.596 515.227 230.986C514.54 231.375 513.979 231.891 513.543 232.532C513.108 233.15 512.787 233.86 512.581 234.662C512.398 235.464 512.306 236.277 512.306 237.101C512.306 237.972 512.41 238.819 512.616 239.644C512.822 240.446 513.143 241.156 513.578 241.774C514.036 242.392 514.62 242.896 515.33 243.286C516.04 243.652 516.899 243.835 517.907 243.835C518.915 243.835 519.751 243.641 520.415 243.251C521.102 242.862 521.652 242.347 522.064 241.705C522.476 241.064 522.774 240.331 522.957 239.506C523.141 238.682 523.232 237.834 523.232 236.964ZM529.649 228.237H532.398V231.982H532.467C533.177 230.539 534.047 229.474 535.078 228.787C536.108 228.1 537.414 227.779 538.994 227.825V230.917C537.826 230.917 536.83 231.077 536.005 231.398C535.181 231.719 534.517 232.188 534.013 232.807C533.509 233.425 533.142 234.181 532.913 235.074C532.684 235.945 532.57 236.953 532.57 238.098V246H529.649V228.237ZM552.924 235.418C552.878 234.731 552.718 234.078 552.443 233.459C552.191 232.841 551.836 232.314 551.378 231.879C550.943 231.421 550.416 231.066 549.798 230.814C549.202 230.539 548.538 230.402 547.805 230.402C547.049 230.402 546.362 230.539 545.743 230.814C545.148 231.066 544.632 231.421 544.197 231.879C543.762 232.337 543.418 232.875 543.167 233.494C542.915 234.089 542.766 234.731 542.72 235.418H552.924ZM555.741 240.365C555.352 242.358 554.493 243.858 553.165 244.866C551.836 245.874 550.164 246.378 548.148 246.378C546.728 246.378 545.491 246.149 544.438 245.691C543.407 245.233 542.537 244.591 541.827 243.767C541.117 242.942 540.578 241.957 540.212 240.812C539.868 239.667 539.674 238.418 539.628 237.067C539.628 235.716 539.834 234.479 540.246 233.356C540.658 232.234 541.231 231.261 541.964 230.436C542.72 229.611 543.602 228.97 544.61 228.512C545.64 228.054 546.763 227.825 547.977 227.825C549.557 227.825 550.863 228.157 551.893 228.821C552.947 229.463 553.783 230.287 554.401 231.295C555.043 232.303 555.478 233.402 555.707 234.593C555.959 235.784 556.062 236.918 556.016 237.995H542.72C542.697 238.773 542.789 239.518 542.995 240.228C543.201 240.915 543.533 241.534 543.991 242.083C544.449 242.61 545.033 243.034 545.743 243.354C546.453 243.675 547.289 243.835 548.251 243.835C549.488 243.835 550.496 243.549 551.275 242.977C552.077 242.404 552.603 241.534 552.855 240.365H555.741ZM559.215 221.469H562.136V246H559.215V221.469ZM566.832 221.469H569.752V246H566.832V221.469ZM590.012 245.931C589.508 246.229 588.809 246.378 587.916 246.378C587.16 246.378 586.553 246.172 586.095 245.759C585.66 245.324 585.442 244.626 585.442 243.664C584.641 244.626 583.702 245.324 582.625 245.759C581.571 246.172 580.426 246.378 579.189 246.378C578.388 246.378 577.62 246.286 576.887 246.103C576.177 245.92 575.559 245.634 575.032 245.244C574.505 244.855 574.082 244.351 573.761 243.732C573.463 243.091 573.314 242.324 573.314 241.43C573.314 240.423 573.486 239.598 573.83 238.957C574.173 238.315 574.62 237.8 575.17 237.411C575.742 236.998 576.383 236.689 577.094 236.483C577.826 236.277 578.571 236.105 579.327 235.968C580.128 235.807 580.884 235.693 581.594 235.624C582.327 235.532 582.969 235.418 583.518 235.28C584.068 235.12 584.503 234.903 584.824 234.628C585.145 234.33 585.305 233.906 585.305 233.356C585.305 232.715 585.179 232.2 584.927 231.81C584.698 231.421 584.389 231.123 583.999 230.917C583.633 230.711 583.209 230.573 582.728 230.505C582.27 230.436 581.812 230.402 581.354 230.402C580.117 230.402 579.086 230.642 578.262 231.123C577.437 231.581 576.99 232.463 576.922 233.769H574.001C574.047 232.669 574.276 231.742 574.689 230.986C575.101 230.23 575.651 229.623 576.338 229.165C577.025 228.684 577.804 228.34 578.674 228.134C579.567 227.928 580.518 227.825 581.526 227.825C582.327 227.825 583.118 227.882 583.896 227.997C584.698 228.111 585.42 228.352 586.061 228.718C586.702 229.062 587.218 229.554 587.607 230.196C587.996 230.837 588.191 231.673 588.191 232.704V241.843C588.191 242.53 588.225 243.034 588.294 243.354C588.386 243.675 588.661 243.835 589.119 243.835C589.371 243.835 589.668 243.778 590.012 243.664V245.931ZM585.271 236.827C584.904 237.101 584.423 237.308 583.828 237.445C583.232 237.559 582.602 237.663 581.938 237.754C581.297 237.823 580.644 237.915 579.98 238.029C579.315 238.121 578.72 238.281 578.193 238.51C577.666 238.739 577.231 239.071 576.887 239.506C576.567 239.919 576.406 240.491 576.406 241.224C576.406 241.705 576.498 242.118 576.681 242.461C576.887 242.782 577.139 243.045 577.437 243.251C577.758 243.458 578.124 243.606 578.537 243.698C578.949 243.79 579.384 243.835 579.842 243.835C580.804 243.835 581.629 243.709 582.316 243.458C583.003 243.183 583.564 242.851 583.999 242.461C584.435 242.049 584.755 241.614 584.961 241.156C585.168 240.675 585.271 240.228 585.271 239.816V236.827ZM594.517 240.4C594.539 241.041 594.688 241.591 594.963 242.049C595.238 242.484 595.593 242.839 596.028 243.114C596.486 243.366 596.99 243.549 597.54 243.664C598.113 243.778 598.697 243.835 599.292 243.835C599.75 243.835 600.231 243.801 600.735 243.732C601.239 243.664 601.697 243.538 602.11 243.354C602.545 243.171 602.9 242.908 603.175 242.564C603.45 242.198 603.587 241.74 603.587 241.19C603.587 240.434 603.301 239.861 602.728 239.472C602.155 239.083 601.434 238.773 600.564 238.544C599.716 238.292 598.788 238.075 597.781 237.892C596.773 237.685 595.834 237.411 594.963 237.067C594.116 236.701 593.406 236.197 592.833 235.555C592.26 234.914 591.974 234.021 591.974 232.875C591.974 231.982 592.169 231.215 592.558 230.573C592.97 229.932 593.486 229.417 594.104 229.027C594.746 228.615 595.456 228.317 596.234 228.134C597.036 227.928 597.826 227.825 598.605 227.825C599.613 227.825 600.541 227.916 601.388 228.1C602.236 228.26 602.98 228.558 603.621 228.993C604.286 229.405 604.812 229.978 605.202 230.711C605.591 231.421 605.82 232.314 605.889 233.391H602.969C602.923 232.818 602.774 232.349 602.522 231.982C602.27 231.593 601.949 231.284 601.56 231.054C601.17 230.825 600.735 230.665 600.254 230.573C599.796 230.459 599.327 230.402 598.846 230.402C598.41 230.402 597.964 230.436 597.506 230.505C597.07 230.573 596.67 230.699 596.303 230.883C595.937 231.043 595.639 231.272 595.41 231.57C595.181 231.845 595.066 232.211 595.066 232.669C595.066 233.173 595.238 233.597 595.582 233.941C595.948 234.261 596.406 234.536 596.956 234.765C597.506 234.971 598.124 235.154 598.811 235.315C599.498 235.452 600.186 235.601 600.873 235.761C601.606 235.922 602.316 236.116 603.003 236.346C603.713 236.575 604.331 236.884 604.858 237.273C605.408 237.64 605.843 238.109 606.164 238.682C606.507 239.254 606.679 239.965 606.679 240.812C606.679 241.889 606.45 242.782 605.992 243.492C605.557 244.202 604.973 244.775 604.24 245.21C603.53 245.645 602.717 245.943 601.8 246.103C600.907 246.286 600.014 246.378 599.12 246.378C598.136 246.378 597.196 246.275 596.303 246.069C595.41 245.863 594.62 245.53 593.932 245.072C593.245 244.591 592.696 243.973 592.283 243.217C591.871 242.438 591.642 241.499 591.596 240.4H594.517ZM326.293 282.917C326.637 282.688 327.003 282.436 327.393 282.161C327.782 281.886 328.137 281.577 328.458 281.234C328.779 280.89 329.042 280.512 329.248 280.1C329.454 279.665 329.557 279.184 329.557 278.657C329.557 277.947 329.305 277.34 328.802 276.836C328.298 276.309 327.61 276.046 326.74 276.046C326.053 276.046 325.412 276.263 324.816 276.698C324.221 277.111 323.923 277.763 323.923 278.657C323.923 279.023 323.991 279.39 324.129 279.756C324.289 280.123 324.484 280.489 324.713 280.856C324.942 281.199 325.194 281.543 325.469 281.886C325.744 282.23 326.019 282.573 326.293 282.917ZM332.581 294.942C331.848 296.087 330.84 296.946 329.557 297.519C328.298 298.092 326.992 298.378 325.641 298.378C323.991 298.378 322.663 298.126 321.655 297.622C320.647 297.118 319.869 296.511 319.319 295.801C318.769 295.091 318.403 294.358 318.219 293.602C318.059 292.846 317.979 292.216 317.979 291.713C317.979 290.751 318.128 289.903 318.426 289.17C318.746 288.437 319.159 287.784 319.662 287.212C320.189 286.616 320.796 286.089 321.483 285.631C322.193 285.15 322.938 284.704 323.717 284.291C323.373 283.81 323.041 283.352 322.72 282.917C322.4 282.482 322.102 282.047 321.827 281.611C321.575 281.153 321.369 280.684 321.209 280.203C321.071 279.699 321.002 279.138 321.002 278.519C321.002 277.855 321.117 277.225 321.346 276.63C321.598 276.011 321.953 275.473 322.411 275.015C322.892 274.534 323.476 274.156 324.163 273.881C324.85 273.606 325.641 273.469 326.534 273.469C327.29 273.469 328.023 273.572 328.733 273.778C329.466 273.984 330.107 274.305 330.657 274.74C331.207 275.152 331.642 275.679 331.962 276.32C332.306 276.939 332.478 277.66 332.478 278.485C332.478 279.218 332.352 279.905 332.1 280.546C331.848 281.165 331.504 281.737 331.069 282.264C330.634 282.791 330.141 283.272 329.592 283.707C329.042 284.12 328.469 284.497 327.874 284.841L332.306 290.235C332.764 288.953 333.027 287.681 333.096 286.422H335.879C335.81 287.154 335.73 287.784 335.639 288.311C335.57 288.815 335.467 289.285 335.329 289.72C335.215 290.155 335.066 290.59 334.883 291.025C334.7 291.438 334.482 291.919 334.23 292.468L339.006 298H335.192L332.581 294.942ZM325.331 286.147C324.759 286.467 324.209 286.799 323.682 287.143C323.178 287.487 322.732 287.876 322.342 288.311C321.953 288.746 321.644 289.239 321.415 289.789C321.186 290.315 321.071 290.945 321.071 291.678C321.071 292.297 321.197 292.869 321.449 293.396C321.724 293.9 322.079 294.335 322.514 294.702C322.949 295.045 323.442 295.32 323.991 295.526C324.564 295.732 325.148 295.835 325.744 295.835C326.866 295.835 327.862 295.572 328.733 295.045C329.626 294.518 330.371 293.808 330.966 292.915L325.331 286.147ZM352.034 292.4C352.057 293.041 352.206 293.591 352.481 294.049C352.756 294.484 353.111 294.839 353.546 295.114C354.004 295.366 354.508 295.549 355.058 295.664C355.63 295.778 356.214 295.835 356.81 295.835C357.268 295.835 357.749 295.801 358.253 295.732C358.757 295.664 359.215 295.538 359.627 295.354C360.062 295.171 360.417 294.908 360.692 294.564C360.967 294.198 361.105 293.74 361.105 293.19C361.105 292.434 360.818 291.861 360.246 291.472C359.673 291.083 358.952 290.773 358.081 290.544C357.234 290.292 356.306 290.075 355.298 289.892C354.29 289.685 353.351 289.411 352.481 289.067C351.633 288.701 350.923 288.197 350.351 287.555C349.778 286.914 349.492 286.021 349.492 284.875C349.492 283.982 349.686 283.215 350.076 282.573C350.488 281.932 351.003 281.417 351.622 281.027C352.263 280.615 352.973 280.317 353.752 280.134C354.554 279.928 355.344 279.825 356.123 279.825C357.131 279.825 358.058 279.916 358.906 280.1C359.753 280.26 360.498 280.558 361.139 280.993C361.803 281.405 362.33 281.978 362.719 282.711C363.109 283.421 363.338 284.314 363.407 285.391H360.486C360.44 284.818 360.291 284.349 360.04 283.982C359.788 283.593 359.467 283.284 359.077 283.054C358.688 282.825 358.253 282.665 357.772 282.573C357.314 282.459 356.844 282.402 356.363 282.402C355.928 282.402 355.481 282.436 355.023 282.505C354.588 282.573 354.187 282.699 353.821 282.883C353.454 283.043 353.157 283.272 352.927 283.57C352.698 283.845 352.584 284.211 352.584 284.669C352.584 285.173 352.756 285.597 353.099 285.941C353.466 286.261 353.924 286.536 354.474 286.765C355.023 286.971 355.642 287.154 356.329 287.315C357.016 287.452 357.703 287.601 358.39 287.761C359.123 287.922 359.833 288.116 360.521 288.346C361.231 288.575 361.849 288.884 362.376 289.273C362.926 289.64 363.361 290.109 363.681 290.682C364.025 291.254 364.197 291.965 364.197 292.812C364.197 293.889 363.968 294.782 363.51 295.492C363.074 296.202 362.49 296.775 361.757 297.21C361.047 297.645 360.234 297.943 359.318 298.103C358.425 298.286 357.531 298.378 356.638 298.378C355.653 298.378 354.714 298.275 353.821 298.069C352.927 297.863 352.137 297.53 351.45 297.072C350.763 296.591 350.213 295.973 349.801 295.217C349.389 294.438 349.16 293.499 349.114 292.4H352.034ZM367.426 273.469H370.347V282.848H370.415C370.645 282.299 370.965 281.841 371.377 281.474C371.79 281.085 372.248 280.775 372.752 280.546C373.279 280.294 373.817 280.111 374.367 279.997C374.939 279.882 375.489 279.825 376.016 279.825C377.184 279.825 378.157 279.985 378.936 280.306C379.715 280.627 380.345 281.073 380.826 281.646C381.307 282.218 381.639 282.906 381.822 283.707C382.028 284.486 382.131 285.356 382.131 286.318V298H379.211V285.975C379.211 284.875 378.89 284.005 378.249 283.364C377.608 282.722 376.726 282.402 375.603 282.402C374.71 282.402 373.931 282.539 373.267 282.814C372.626 283.089 372.088 283.478 371.652 283.982C371.217 284.486 370.885 285.082 370.656 285.769C370.45 286.433 370.347 287.166 370.347 287.968V298H367.426V273.469ZM402.253 297.931C401.749 298.229 401.051 298.378 400.158 298.378C399.402 298.378 398.795 298.172 398.337 297.759C397.901 297.324 397.684 296.626 397.684 295.664C396.882 296.626 395.943 297.324 394.867 297.759C393.813 298.172 392.668 298.378 391.431 298.378C390.629 298.378 389.862 298.286 389.129 298.103C388.419 297.92 387.8 297.634 387.273 297.244C386.747 296.855 386.323 296.351 386.002 295.732C385.704 295.091 385.556 294.324 385.556 293.43C385.556 292.423 385.727 291.598 386.071 290.957C386.415 290.315 386.861 289.8 387.411 289.411C387.984 288.998 388.625 288.689 389.335 288.483C390.068 288.277 390.812 288.105 391.568 287.968C392.37 287.807 393.126 287.693 393.836 287.624C394.569 287.532 395.21 287.418 395.76 287.28C396.31 287.12 396.745 286.903 397.065 286.628C397.386 286.33 397.546 285.906 397.546 285.356C397.546 284.715 397.42 284.2 397.168 283.81C396.939 283.421 396.63 283.123 396.241 282.917C395.874 282.711 395.451 282.573 394.97 282.505C394.511 282.436 394.053 282.402 393.595 282.402C392.358 282.402 391.328 282.642 390.503 283.123C389.679 283.581 389.232 284.463 389.163 285.769H386.243C386.289 284.669 386.518 283.742 386.93 282.986C387.342 282.23 387.892 281.623 388.579 281.165C389.266 280.684 390.045 280.34 390.915 280.134C391.809 279.928 392.759 279.825 393.767 279.825C394.569 279.825 395.359 279.882 396.138 279.997C396.939 280.111 397.661 280.352 398.302 280.718C398.944 281.062 399.459 281.554 399.848 282.196C400.238 282.837 400.432 283.673 400.432 284.704V293.843C400.432 294.53 400.467 295.034 400.536 295.354C400.627 295.675 400.902 295.835 401.36 295.835C401.612 295.835 401.91 295.778 402.253 295.664V297.931ZM397.512 288.827C397.146 289.101 396.665 289.308 396.069 289.445C395.473 289.559 394.844 289.663 394.179 289.754C393.538 289.823 392.885 289.915 392.221 290.029C391.557 290.121 390.961 290.281 390.434 290.51C389.908 290.739 389.472 291.071 389.129 291.506C388.808 291.919 388.648 292.491 388.648 293.224C388.648 293.705 388.739 294.118 388.923 294.461C389.129 294.782 389.381 295.045 389.679 295.251C389.999 295.458 390.366 295.606 390.778 295.698C391.19 295.79 391.625 295.835 392.084 295.835C393.046 295.835 393.87 295.709 394.557 295.458C395.244 295.183 395.806 294.851 396.241 294.461C396.676 294.049 396.997 293.614 397.203 293.156C397.409 292.675 397.512 292.228 397.512 291.816V288.827ZM407.102 289.273C407.102 290.098 407.205 290.911 407.411 291.713C407.64 292.491 407.972 293.19 408.407 293.808C408.865 294.427 409.438 294.919 410.125 295.286C410.835 295.652 411.66 295.835 412.599 295.835C413.584 295.835 414.42 295.641 415.107 295.251C415.794 294.862 416.355 294.358 416.79 293.74C417.226 293.098 417.535 292.377 417.718 291.575C417.924 290.773 418.027 289.96 418.027 289.136C418.027 288.265 417.924 287.429 417.718 286.628C417.512 285.803 417.18 285.082 416.722 284.463C416.286 283.845 415.714 283.352 415.004 282.986C414.294 282.596 413.435 282.402 412.427 282.402C411.442 282.402 410.606 282.596 409.919 282.986C409.232 283.375 408.682 283.891 408.27 284.532C407.857 285.173 407.56 285.906 407.376 286.731C407.193 287.555 407.102 288.403 407.102 289.273ZM420.845 298H417.924V295.595H417.855C417.374 296.58 416.619 297.29 415.588 297.725C414.557 298.16 413.423 298.378 412.186 298.378C410.812 298.378 409.61 298.126 408.579 297.622C407.571 297.118 406.724 296.442 406.036 295.595C405.372 294.747 404.868 293.763 404.525 292.64C404.181 291.518 404.009 290.327 404.009 289.067C404.009 287.807 404.17 286.616 404.49 285.494C404.834 284.372 405.338 283.398 406.002 282.573C406.689 281.726 407.537 281.062 408.545 280.581C409.575 280.077 410.766 279.825 412.118 279.825C412.576 279.825 413.068 279.871 413.595 279.962C414.122 280.054 414.649 280.214 415.176 280.443C415.702 280.649 416.195 280.936 416.653 281.302C417.134 281.646 417.535 282.081 417.855 282.608H417.924V273.469H420.845V298ZM437.672 287.418C437.626 286.731 437.466 286.078 437.191 285.459C436.939 284.841 436.584 284.314 436.126 283.879C435.691 283.421 435.164 283.066 434.545 282.814C433.95 282.539 433.286 282.402 432.553 282.402C431.797 282.402 431.11 282.539 430.491 282.814C429.896 283.066 429.38 283.421 428.945 283.879C428.51 284.337 428.166 284.875 427.914 285.494C427.662 286.089 427.514 286.731 427.468 287.418H437.672ZM440.489 292.365C440.1 294.358 439.241 295.858 437.912 296.866C436.584 297.874 434.912 298.378 432.896 298.378C431.476 298.378 430.239 298.149 429.186 297.691C428.155 297.233 427.285 296.591 426.574 295.767C425.864 294.942 425.326 293.957 424.96 292.812C424.616 291.667 424.421 290.418 424.376 289.067C424.376 287.716 424.582 286.479 424.994 285.356C425.406 284.234 425.979 283.261 426.712 282.436C427.468 281.611 428.35 280.97 429.357 280.512C430.388 280.054 431.511 279.825 432.724 279.825C434.305 279.825 435.611 280.157 436.641 280.821C437.695 281.463 438.531 282.287 439.149 283.295C439.791 284.303 440.226 285.402 440.455 286.593C440.707 287.784 440.81 288.918 440.764 289.995H427.468C427.445 290.773 427.536 291.518 427.743 292.228C427.949 292.915 428.281 293.534 428.739 294.083C429.197 294.61 429.781 295.034 430.491 295.354C431.201 295.675 432.037 295.835 432.999 295.835C434.236 295.835 435.244 295.549 436.023 294.977C436.824 294.404 437.351 293.534 437.603 292.365H440.489ZM444.444 294.186H448.258V298H444.444V294.186Z" fill="white"/>
<rect x="283" y="339" width="201.682" height="58" rx="4.83334" fill="#ED0000"/>
<path d="M336.833 364.202C336.7 362.919 336.233 361.994 335.433 361.427C334.65 360.844 333.641 360.552 332.408 360.552C331.908 360.552 331.416 360.602 330.933 360.702C330.45 360.802 330.016 360.969 329.633 361.202C329.266 361.435 328.966 361.752 328.733 362.152C328.516 362.535 328.408 363.019 328.408 363.602C328.408 364.152 328.566 364.602 328.883 364.952C329.216 365.285 329.65 365.56 330.183 365.777C330.733 365.994 331.35 366.177 332.033 366.327C332.716 366.46 333.408 366.61 334.108 366.777C334.825 366.944 335.525 367.144 336.208 367.377C336.891 367.594 337.5 367.894 338.033 368.277C338.583 368.66 339.016 369.144 339.333 369.727C339.666 370.31 339.833 371.044 339.833 371.927C339.833 372.877 339.616 373.694 339.183 374.377C338.766 375.044 338.225 375.594 337.558 376.027C336.891 376.444 336.141 376.744 335.308 376.927C334.491 377.127 333.675 377.227 332.858 377.227C331.858 377.227 330.908 377.102 330.008 376.852C329.125 376.602 328.341 376.227 327.658 375.727C326.991 375.21 326.458 374.56 326.058 373.777C325.675 372.977 325.483 372.035 325.483 370.952H327.733C327.733 371.702 327.875 372.352 328.158 372.902C328.458 373.435 328.841 373.877 329.308 374.227C329.791 374.577 330.35 374.835 330.983 375.002C331.616 375.169 332.266 375.252 332.933 375.252C333.466 375.252 334 375.202 334.533 375.102C335.083 375.002 335.575 374.835 336.008 374.602C336.441 374.352 336.791 374.019 337.058 373.602C337.325 373.185 337.458 372.652 337.458 372.002C337.458 371.385 337.291 370.885 336.958 370.502C336.641 370.119 336.208 369.81 335.658 369.577C335.125 369.327 334.516 369.127 333.833 368.977C333.15 368.827 332.45 368.677 331.733 368.527C331.033 368.36 330.341 368.177 329.658 367.977C328.975 367.76 328.358 367.485 327.808 367.152C327.275 366.802 326.841 366.36 326.508 365.827C326.191 365.277 326.033 364.594 326.033 363.777C326.033 362.877 326.216 362.102 326.583 361.452C326.95 360.785 327.433 360.244 328.033 359.827C328.65 359.394 329.341 359.077 330.108 358.877C330.891 358.66 331.691 358.552 332.508 358.552C333.425 358.552 334.275 358.66 335.058 358.877C335.841 359.094 336.525 359.435 337.108 359.902C337.708 360.369 338.175 360.96 338.508 361.677C338.858 362.377 339.05 363.219 339.083 364.202H336.833ZM342.369 358.977H344.494V365.802H344.544C344.71 365.402 344.944 365.069 345.244 364.802C345.544 364.519 345.877 364.294 346.244 364.127C346.627 363.944 347.019 363.81 347.419 363.727C347.835 363.644 348.235 363.602 348.619 363.602C349.469 363.602 350.177 363.719 350.744 363.952C351.31 364.185 351.769 364.51 352.119 364.927C352.469 365.344 352.71 365.844 352.844 366.427C352.994 366.994 353.069 367.627 353.069 368.327V376.827H350.944V368.077C350.944 367.277 350.71 366.644 350.244 366.177C349.777 365.71 349.135 365.477 348.319 365.477C347.669 365.477 347.102 365.577 346.619 365.777C346.152 365.977 345.76 366.26 345.444 366.627C345.127 366.994 344.885 367.427 344.719 367.927C344.569 368.41 344.494 368.944 344.494 369.527V376.827H342.369V358.977ZM357.81 370.377C357.81 371.16 357.91 371.86 358.11 372.477C358.327 373.077 358.619 373.585 358.985 374.002C359.352 374.402 359.777 374.71 360.26 374.927C360.76 375.144 361.285 375.252 361.835 375.252C362.385 375.252 362.902 375.144 363.385 374.927C363.885 374.71 364.319 374.402 364.685 374.002C365.052 373.585 365.335 373.077 365.535 372.477C365.752 371.86 365.86 371.16 365.86 370.377C365.86 369.594 365.752 368.902 365.535 368.302C365.335 367.685 365.052 367.169 364.685 366.752C364.319 366.335 363.885 366.019 363.385 365.802C362.902 365.585 362.385 365.477 361.835 365.477C361.285 365.477 360.76 365.585 360.26 365.802C359.777 366.019 359.352 366.335 358.985 366.752C358.619 367.169 358.327 367.685 358.11 368.302C357.91 368.902 357.81 369.594 357.81 370.377ZM355.56 370.377C355.56 369.427 355.694 368.544 355.96 367.727C356.227 366.894 356.627 366.177 357.16 365.577C357.694 364.96 358.352 364.477 359.135 364.127C359.919 363.777 360.819 363.602 361.835 363.602C362.869 363.602 363.769 363.777 364.535 364.127C365.319 364.477 365.977 364.96 366.51 365.577C367.044 366.177 367.444 366.894 367.71 367.727C367.977 368.544 368.11 369.427 368.11 370.377C368.11 371.327 367.977 372.21 367.71 373.027C367.444 373.844 367.044 374.56 366.51 375.177C365.977 375.777 365.319 376.252 364.535 376.602C363.769 376.935 362.869 377.102 361.835 377.102C360.819 377.102 359.919 376.935 359.135 376.602C358.352 376.252 357.694 375.777 357.16 375.177C356.627 374.56 356.227 373.844 355.96 373.027C355.694 372.21 355.56 371.327 355.56 370.377ZM370.691 363.902H372.816V365.652H372.866C373.216 364.935 373.766 364.419 374.516 364.102C375.266 363.769 376.091 363.602 376.991 363.602C377.991 363.602 378.858 363.785 379.591 364.152C380.341 364.519 380.958 365.019 381.441 365.652C381.941 366.269 382.316 366.985 382.566 367.802C382.816 368.619 382.941 369.485 382.941 370.402C382.941 371.319 382.816 372.185 382.566 373.002C382.333 373.819 381.966 374.535 381.466 375.152C380.983 375.752 380.366 376.227 379.616 376.577C378.883 376.927 378.024 377.102 377.041 377.102C376.724 377.102 376.366 377.069 375.966 377.002C375.583 376.935 375.199 376.827 374.816 376.677C374.433 376.527 374.066 376.327 373.716 376.077C373.383 375.81 373.099 375.485 372.866 375.102H372.816V381.752H370.691V363.902ZM380.691 370.252C380.691 369.652 380.608 369.069 380.441 368.502C380.291 367.919 380.049 367.402 379.716 366.952C379.399 366.502 378.983 366.144 378.466 365.877C377.966 365.61 377.374 365.477 376.691 365.477C375.974 365.477 375.366 365.619 374.866 365.902C374.366 366.185 373.958 366.56 373.641 367.027C373.324 367.477 373.091 367.994 372.941 368.577C372.808 369.16 372.741 369.752 372.741 370.352C372.741 370.985 372.816 371.602 372.966 372.202C373.116 372.785 373.349 373.302 373.666 373.752C373.999 374.202 374.424 374.569 374.941 374.852C375.458 375.119 376.083 375.252 376.816 375.252C377.549 375.252 378.158 375.11 378.641 374.827C379.141 374.544 379.541 374.169 379.841 373.702C380.141 373.235 380.358 372.702 380.491 372.102C380.624 371.502 380.691 370.885 380.691 370.252ZM392.718 358.977H395.243L404.643 373.452H404.693V358.977H406.943V376.827H404.343L395.018 362.502H394.968V376.827H392.718V358.977ZM411.985 370.377C411.985 371.16 412.085 371.86 412.285 372.477C412.502 373.077 412.794 373.585 413.16 374.002C413.527 374.402 413.952 374.71 414.435 374.927C414.935 375.144 415.46 375.252 416.01 375.252C416.56 375.252 417.077 375.144 417.56 374.927C418.06 374.71 418.494 374.402 418.86 374.002C419.227 373.585 419.51 373.077 419.71 372.477C419.927 371.86 420.035 371.16 420.035 370.377C420.035 369.594 419.927 368.902 419.71 368.302C419.51 367.685 419.227 367.169 418.86 366.752C418.494 366.335 418.06 366.019 417.56 365.802C417.077 365.585 416.56 365.477 416.01 365.477C415.46 365.477 414.935 365.585 414.435 365.802C413.952 366.019 413.527 366.335 413.16 366.752C412.794 367.169 412.502 367.685 412.285 368.302C412.085 368.902 411.985 369.594 411.985 370.377ZM409.735 370.377C409.735 369.427 409.869 368.544 410.135 367.727C410.402 366.894 410.802 366.177 411.335 365.577C411.869 364.96 412.527 364.477 413.31 364.127C414.094 363.777 414.994 363.602 416.01 363.602C417.044 363.602 417.944 363.777 418.71 364.127C419.494 364.477 420.152 364.96 420.685 365.577C421.219 366.177 421.619 366.894 421.885 367.727C422.152 368.544 422.285 369.427 422.285 370.377C422.285 371.327 422.152 372.21 421.885 373.027C421.619 373.844 421.219 374.56 420.685 375.177C420.152 375.777 419.494 376.252 418.71 376.602C417.944 376.935 417.044 377.102 416.01 377.102C414.994 377.102 414.094 376.935 413.31 376.602C412.527 376.252 411.869 375.777 411.335 375.177C410.802 374.56 410.402 373.844 410.135 373.027C409.869 372.21 409.735 371.327 409.735 370.377ZM437.591 376.827H435.341L432.716 366.552H432.666L430.066 376.827H427.766L423.616 363.902H425.966L428.891 374.477H428.941L431.541 363.902H433.866L436.566 374.477H436.616L439.516 363.902H441.716L437.591 376.827Z" fill="white"/>
</svg>
